<svg xmlns="http://www.w3.org/2000/svg" width="128" height="32" viewBox="0 0 128 32">
  <path fill="#333" d="M13.4046504 31.7791591C13.3433011 31.7707901 13.2396914 31.7538946 13.093821 31.7284726 13.0313575 31.7175866 12.9150398 31.695489 12.7448676 31.6621798 11.2322201 31.3498991 9.77255176 30.8176945 8.41156106 30.0822281L8.45793415 29.8041775C8.80057966 27.6421384 9.15610659 25.409937 10.0475002 23.3908213 10.2572829 23.1730911 10.4080925 22.9046508 10.4854682 22.6112399L13.8913131 22.7203813C14.1852254 22.724727 14.4067856 22.7286273 14.5559941 22.732082 14.555994 22.7316466 14.5559939 22.7312111 14.5559939 22.7307756 14.8319063 22.7148018 15.0986466 22.6251179 15.3288785 22.4709153 15.5765593 22.6279321 15.8633286 22.7108336 16.1558651 22.7099869 16.5620638 22.7129774 16.9519035 22.5487458 17.2353273 22.255231 17.853635 22.5592678 18.4461799 22.8191283 19.195878 22.8191283L19.3530311 22.8191283C20.1838896 22.7504191 21.006658 22.6042738 21.8108043 22.3825626 22.6017229 22.1902659 23.4647774 21.9589901 24.3432896 21.6991296 23.6812066 22.4405621 22.9618878 23.127881 22.192094 23.7546259 21.1062564 24.5397205 19.9475215 25.2167919 18.7321471 25.7763403 18.0792584 26.1004268 17.4824812 26.5286346 16.9648176 27.0444594 16.6225768 27.4228134 16.3322944 27.8458404 16.1017631 28.302184 16.0450849 28.400931 15.990983 28.5022765 15.9317285 28.6036221 15.8209484 28.7907216 15.6972869 28.9700254 15.5633201 29.1597235 15.2939929 29.5086099 15.0737826 29.8933818 14.9089445 30.3031095 14.7337574 30.8020416 14.5817568 31.319164 14.4349086 31.8154974L14.4039933 31.9142444C14.0665871 31.8804713 13.7343309 31.8337118 13.4046504 31.7791591zM19.9172369 25.9270594C21.1255132 27.5771733 22.9005716 28.55165 24.7245794 29.4013937 22.1265061 31.0988759 19.0967908 32.0014059 16.0012881 32 15.689558 32 15.3804041 31.989604 15.0764029 31.9714137 15.2155221 31.495869 15.3623701 31.0047327 15.5272523 30.5343854 15.672808 30.1822924 15.8652206 29.8518322 16.0991869 29.5521127 16.2408824 29.3598161 16.374849 29.1597235 16.4985106 28.9466379 16.5577651 28.8452924 16.6144433 28.7413481 16.6736977 28.637404 16.8753172 28.2337594 17.1291496 27.8588869 17.4285484 27.5226026 17.8953155 27.0588456 18.4328696 26.6736822 19.0206907 26.3818151L19.9172369 25.9270594zM9.01698736 7.86156006C8.94341552 5.8758833 8.72035431 3.89871642 8.3497303 1.94713595 13.9926871-1.1216863 20.90236-.524734265 25.945737 3.46731965 25.8435466 3.5709188 25.7472134 3.68023279 25.6571935 3.79474384 25.4181665 4.1304223 25.2297696 4.49997228 25.0981403 4.89135499 25.0466146 5.01868661 24.9976652 5.15121545 24.9435634 5.27854707L24.7323082 5.76188754C24.3796947 6.63188062 23.9494025 7.4677399 23.4467434 8.25914658 23.0367851 8.82761009 22.5678196 9.35029397 22.0478222 9.81830934 21.7103293 10.1431349 21.3651075 10.4783549 21.0482247 10.8421596 20.9657837 10.951301 20.8807665 11.0656396 20.7905966 11.1773795L20.1697126 10.6108837C20.1284921 10.530327 20.0795428 10.4419745 20.0280171 10.3510233 19.9034115 10.1857582 19.8307295 9.98663997 19.8193383 9.77933027 19.8399485 9.57404051 20.1310684 9.3453633 20.3552049 9.16086238 20.419612 9.10629167 20.484019 9.05431959 20.5381209 9.0049461 20.6051072 8.9472336 20.6459616 8.86453781 20.6513057 8.77584201 20.6566497 8.68714622 20.6260245 8.60006872 20.56646 8.53459866 20.5084651 8.46829896 20.4266864 8.42801799 20.3391901 8.42265446 20.2516939 8.41729094 20.165681 8.44728627 20.100153 8.50601401 20.0512036 8.55019029 19.9945254 8.59696517 19.9352709 8.64374005 19.6209645 8.88800889 19.2396747 9.21543307 19.1623862 9.66759028 19.1360667 10.0296795 19.2373419 10.3895146 19.4483536 10.6836447L19.4844215 10.753807C19.4174382 10.8473568 19.3504549 10.9487023 19.2808953 11.0552451 18.95886 11.5567758 18.721842 11.8790028 18.402383 11.8348265 17.5857016 11.7100935 17.4130907 12.1726451 17.2482086 12.6144079 17.0833266 13.0561707 16.9622414 13.6824344 17.8021094 14.0280489L18.0339747 14.1267957C18.339208 14.2659023 18.6554847 14.3789056 18.9794702 14.4646144 19.1598709 14.5087462 19.3433027 14.5391488 19.5282184 14.5555655L20.2804928 14.5867489C20.7957491 14.6127349 21.3110055 14.6387209 21.826262 14.6751014 22.5308425 14.7082172 23.228897 14.8268764 23.9053216 15.0285116 24.3175267 15.1584419 24.5725787 15.5690214 24.7683761 15.9380233 25.0878351 16.5408995 25.3944128 17.200945 25.762821 18.081872 26.0278537 18.6827676 26.3352177 19.2637431 26.6825537 19.8203385 26.7263505 19.8905009 26.767571 19.9632618 26.8113679 20.0360228 26.6439095 20.1321711 26.4712986 20.2153264 26.2806537 20.2958831 24.7620455 20.9012942 23.1985715 21.3852616 21.6047017 21.7433059 20.8517921 21.9498913 20.0816995 22.0864559 19.3040818 22.1512869 18.6548587 22.1902659 18.1318735 21.9511943 17.5393285 21.670545 17.5729926 21.5433787 17.5903097 21.4123749 17.5908542 21.2807543 17.6123306 20.6187314 17.1592605 20.0368014 16.5165445 19.9008953 16.5345785 19.6280418 16.5577651 19.3421952 16.5861041 19.0823348 16.6516866 18.5739867 16.6835318 18.0617878 16.6814266 17.5491581 16.6736977 17.2711074 16.6556637 16.9930568 16.6376299 16.715006 16.6195959 16.3953776 16.5964093 16.0757493 16.5964093 15.7535222L16.5964093 15.5950074C16.5912567 14.6413195 16.5809516 13.22508 15.5220996 12.7365424 14.7956546 12.4339034 14.0051846 12.3212776 13.224056 12.4091181 13.0224125 12.4252764 12.8219436 12.453915 12.6237822 12.4948721 12.2115772 12.567633 11.7323887 12.653387 11.4747605 12.5156609 11.3047259 12.4273084 11.2428951 12.1518563 11.2042509 11.8660098 11.167218 11.5478259 11.1525824 11.2273952 11.1604541 10.9071247L11.1604541 10.6862433C11.1578778 10.2366847 11.1295387 9.78712609 11.0986233 9.35315911L11.0677079 8.83343819C11.0574028 8.66452889 11.0419451 8.49042237 11.0290637 8.31371726 10.9586977 7.79641954 10.9586977 7.27185223 11.0290637 6.7545545 11.1733355 6.01914939 11.2944207 5.2915401 11.3948957 4.6756708 11.4247754 4.49412184 11.3030874 4.32251519 11.123098 4.29237663 10.9431085 4.26223806 10.772976 4.38498044 10.7430964 4.56652941 10.6374688 5.17720149 10.5215361 5.89961358 10.3798406 6.62462426 10.2935995 7.19961978 10.2883954 7.78402686 10.3643829 8.36049215 10.3772643 8.54499308 10.3901457 8.71650099 10.4004508 8.88021308 10.410756 9.04392516 10.4339425 9.22063027 10.4339425 9.399934 10.4622816 9.83130236 10.493197 10.2704666 10.493197 10.6992363L10.493197 10.9175191C10.4859608 11.2647207 10.5023156 11.6120144 10.5421464 11.9569609 10.5833669 12.2428075 10.7070284 12.863874 11.1759118 13.100347 11.6447951 13.33682 12.2218823 13.2328757 12.7371387 13.1419246 12.907418 13.1068501 13.0794074 13.0808281 13.2523951 13.0639665 13.9292659 12.988208 14.6141516 13.0856199 15.2438612 13.3472144 15.9394574 13.6538498 15.9394574 14.815426 15.9394574 15.5950074L15.9394574 15.7613181C15.9420336 16.0939395 15.9626439 16.4239622 15.9832541 16.7565836 16.0012881 17.0268385 16.0244746 17.3074879 16.0244746 17.5673482 16.0242836 18.0503806 15.9941684 18.532929 15.9343047 19.0121725 15.9059657 19.2928218 15.8776266 19.5838655 15.8595926 19.8749093 15.1710302 19.9748922 14.665941 20.5793241 14.684808 21.2807543 14.6845291 21.521223 14.7438656 21.7579455 14.8574189 21.9693845 14.7081755 22.0522112 14.5372712 22.0866883 14.3679252 22.0681315L10.5266887 21.9304055C10.5031262 21.6536546 10.4148345 21.3864848 10.2690605 21.1508241 9.32098865 19.0771376 9.06336044 16.7487879 8.80573222 14.493199L8.75935915 14.1138027C8.9535742 12.0357003 9.03956846 9.94875129 9.01698736 7.86156006zM12.6907656 8.18378704L12.6856131 8.18378704C12.6698978 8.45215739 12.6837223 8.72145795 12.7268336 8.98675586 12.7448676 9.14786935 12.858224 9.75854144 13.0024957 9.82870376 13.1467676 9.89886609 13.5151759 9.82870376 13.662024 9.82870376 14.2210773 9.82870376 14.7827067 9.82870376 15.3417599 9.82870376L15.3417599 8.55019029 14.9630465 8.55019029 14.9630465 6.93125961 13.2730054 6.93125961C13.0823605 6.93125961 13.0076484 6.89228054 12.9097496 7.01701356 12.7139521 7.263881 12.7062234 7.88754611 12.6907656 8.18378704zM7.36559054 20.6674836C7.32437001 21.6081785 7.29087835 22.577458 7.26769181 23.5675264 6.34280654 23.4661807 5.46429434 23.0348124 5.46429434 22.1227022 5.46429434 21.210592 6.39948474 20.7480404 7.36559054 20.6674836zM8.29562837 20.7142585C8.63065009 20.7659776 8.95309708 20.8805611 9.24627646 21.0520771 9.63782935 21.263717 9.88305028 21.67463 9.88519442 22.1227023 9.88519442 22.9620515 9.08912326 23.4194059 8.20803477 23.5493361 8.22349248 22.5826553 8.25440786 21.6341645 8.29562837 20.7142585zM28.3725948 19.843726L31.7140326 19.001778C31.3909194 20.6999927 30.794811 22.3335254 29.9492795 23.8377812 29.5387525 23.2373444 29.0867835 22.6668368 28.5967314 22.130498 28.3846091 21.9287982 28.1397436 21.765312 27.8727961 21.6471575 27.7237049 21.5734906 27.5814429 21.4865241 27.4477095 21.3872971 27.24855 21.1955501 27.1043647 20.9531594 27.0303519 20.6856739 27.4944089 20.4630904 27.9274891 20.1800227 28.3184929 19.843726 28.3364376 19.8462853 28.3546501 19.8462853 28.3725948 19.843726zM29.1609371 17.7830325C28.8194072 18.3280027 28.4184434 18.8326786 27.9655422 19.2876246 27.787771 19.44575 27.5982932 19.5899584 27.3987601 19.7189929 27.3523871 19.6436334 27.3085902 19.5682739 27.2647935 19.4929144 26.9292249 18.9581396 26.6321875 18.3997341 26.3759761 17.8220116 25.9895339 16.9228944 25.6752274 16.2446585 25.3454634 15.623592 25.2220362 15.3760544 25.0688852 15.1447737 24.8894614 14.9349619L24.3510184 8.07464564C24.7128416 7.410727 25.0379505 6.72711435 25.3248531 6.0269452L25.5309556 5.54620335C25.5902101 5.41367451 25.644312 5.27334986 25.698414 5.13562382 25.8083926 4.80487824 25.9645394 4.49162906 26.1621447 4.20532336 26.2504016 4.09580919 26.3450321 3.9916815 26.4455357 3.89349081 29.3943711 6.42264205 31.3196479 9.95608169 31.8557282 13.822759L31.6496256 14.1293944C30.9256904 15.2130125 30.1759922 16.3330111 29.4185654 17.4192279 29.3258191 17.5387636 29.2433781 17.6608981 29.1609371 17.7830325zM21.8752114 14.0098586C21.3522261 13.9734781 20.8266645 13.9474921 20.3036792 13.9163089L19.7575075 13.8903228 19.8888979 13.6824344C20.3827714 12.8404098 20.9409374 12.0384789 21.5583286 11.2839224 21.8546011 10.9409065 22.192094 10.616081 22.5167056 10.3042484 22.963446 9.8905662 23.3801579 9.44505905 23.7636261 8.97116424L24.191289 14.4282339 24.1217294 14.3970506C23.3916216 14.1748794 22.6370324 14.0448244 21.8752114 14.0098586zM29.7045326 18.1598301L29.9518558 17.8038214C30.6319943 16.8293446 31.2992513 15.8314804 31.9536269 14.8544051 31.9793897 15.223407 32 15.6157963 32 16.0029884 31.9987661 16.7656328 31.943666 17.5272194 31.835118 18.2819646L29.1351742 18.962799C29.3361243 18.7003399 29.5216166 18.4196906 29.7045326 18.1598301zM20.3886965 11.7178893C20.0099831 12.2454061 19.662185 12.7937116 19.3221157 13.3342214L19.0335721 13.7941744C18.7808419 13.7168909 18.5330529 13.6240328 18.2916029 13.5161238L18.0648901 13.4121795C17.7763465 13.2926438 17.7248209 13.2536646 17.8768215 12.8482824 18.0288221 12.4429 18.0288221 12.4429 18.3173657 12.4844777 19.0722164 12.5936191 19.5230657 11.9127847 19.845101 11.4138526L19.9249657 11.2917182 20.3886965 11.7178893zM8.32654376 20.0386212C8.37549311 19.0121725 8.45535786 17.9753292 8.53779889 16.9462817 8.6970558 18.1010676 8.96358539 19.2381955 9.33387006 20.342658 9.01462124 20.1922246 8.67524044 20.0897909 8.32654376 20.0386212zM5.33290395 23.4323989C6.13226621 25.386198 6.79597139 27.3936974 7.31921745 29.4403728 4.2683235 27.4723173 1.97444861 24.51321.816681426 21.0520771L.832139119 21.0312883 1.03051284 20.8961609C1.36364251 20.6979531 1.66577956 20.4509965 1.92705901 20.1633544 2.24136542 20.3998274 2.55567185 20.6363004 2.85709685 20.8961609 3.0812334 21.0780631 3.30279365 21.2599655 3.52950647 21.4366706 3.76538081 21.6121286 4.01237149 21.7718501 4.26889945 21.9148139 4.46469689 22.0291525 4.64503664 22.1382939 4.81764754 22.2604283 4.84816975 22.6930013 5.03090414 23.1003434 5.33290395 23.4090115 5.33290395 23.4168073 5.33290395 23.4323989 5.33290395 23.4323989zM.638917961 12.8196976C.55132437 12.7365424.461154496 12.6559856.381289751 12.5910205.931918037 10.0711873 2.08127201 7.72402495 3.73045649 5.75149311L3.79228725 6.88448473C3.89018597 8.78666331 3.99066097 10.7564056 4.18130585 12.6845703L4.19933983 12.8326908C4.25086548 13.2978409 4.23798406 13.4589544 4.04991546 13.5577014 3.83312397 13.6422418 3.60217445 13.683714 3.36977699 13.6798358 3.27445455 13.685033 3.1817084 13.7006246 3.0941148 13.7006246 2.95499557 13.7136176 2.80299493 13.7448009 2.64326544 13.7759841 2.30061991 13.8383506 1.91160132 13.9163089 1.72868529 13.7759841 1.35512439 13.4823419.99186861 13.1445233.638917961 12.8196976zM.224136543 13.3394186C.577087191 13.6668428.940342968 14.0020628 1.32678529 14.2957051L1.39119234 14.3398814 1.51485388 18.3885074C1.51743016 18.515839 1.53031158 18.653565 1.54576926 18.7912911 1.5785037 19.0240001 1.5785037 19.2602052 1.54576926 19.4929144 1.47878593 19.7995496 1.01247887 20.1139809.672409629 20.342658L.61315514 20.3816371C.20667886 18.9582111.000280619549 17.484285 0 16.0029884.00111237911 15.1103881.076084807 14.2194389.224136543 13.3394186zM29.5370742 24.4016785L29.5808711 24.4744394C28.4773995 26.2390061 27.0451749 27.7710067 25.3634973 28.985617 23.5266081 28.1202816 21.6974479 27.1873826 20.5123581 25.607431 21.2397905 25.2226971 21.9358484 24.7804157 22.593994 24.2847412 23.4079141 23.6250519 24.16701 22.8993571 24.8636986 22.1149064 25.141937 21.8186655 25.4201755 21.5250231 25.7035665 21.236578 25.945737 21.1482255 26.1879076 21.0572742 26.4249255 20.9585274 26.5389214 21.3339166 26.7559733 21.6690726 27.0509621 21.9252082 27.212856 22.0441486 27.3853484 22.1476709 27.5662185 22.2344422 27.7686677 22.3188276 27.9558406 22.4364951 28.1201191 22.5826552 28.6335523 23.1552332 29.1070061 23.7630319 29.5370742 24.4016785zM15.3572176 21.2807543C15.3530366 21.0695046 15.4372748 20.8662513 15.5892676 20.7208543 15.7412605 20.5754571 15.9469451 20.5013691 16.1558651 20.5167645 16.357218 20.5128798 16.5534365 20.5810006 16.7097657 20.7090613 16.8701975 20.8536353 16.9565105 21.0641119 16.9442074 21.2807543 16.9442074 21.7227865 16.5889476 22.0811245 16.1507125 22.0811245 15.7124774 22.0811245 15.3572176 21.7227865 15.3572176 21.2807543zM8.20030594 24.2223748C8.53720172 24.183033 8.86733744 24.0982544 9.18186941 23.9703101 8.78397462 25.0879461 8.47892196 26.2370249 8.26986555 27.4056654 8.25183157 26.9820929 8.23122131 26.5585203 8.21833991 26.140145 8.20030594 25.495691 8.20030594 24.8590329 8.20030594 24.2223748zM7.21358989 17.9857236C7.27284438 17.7648423 7.33209886 17.5439609 7.39650591 17.3360725L7.64125271 16.4837301C7.54593027 17.6505036 7.45318412 18.8302701 7.39650591 20.0048395 7.06841966 20.0245883 6.74396768 20.0848046 6.43040013 20.1841431 6.57152996 19.934653 6.69215987 19.6739206 6.79107963 19.4045617 6.95596168 18.9394115 7.08735206 18.4534725 7.21358989 17.9857236zM7.28830208 26.1687296C7.30118348 26.5689148 7.31921745 26.9716984 7.33725143 27.3692849 6.99975848 26.2284975 6.62877385 25.0851115 6.18822961 23.9703101 6.53333264 24.1102901 6.89711198 24.1978633 7.26769181 24.2301705 7.26511553 24.8694273 7.26769181 25.5164799 7.28830208 26.1687296zM4.45181547 6.83251264C4.42090009 6.23656598 4.38826719 5.63802071 4.35391675 5.03687685 5.27984317 4.04291781 6.32634042 3.17070176 7.46864181 2.44087084 7.79779425 4.2340825 7.99498849 6.04939671 8.05861041 7.87195449 8.11013606 9.75334422 7.99677965 11.6659172 7.85250785 13.5499056L6.82199501 17.148973C6.75758795 17.3698544 6.69833346 17.595933 6.6365027 17.819413 6.51284115 18.2767674 6.38402705 18.7497134 6.22687384 19.1966734 6.09774214 19.5321379 5.93819496 19.8548669 5.75026165 20.1607557 5.66782062 20.3244678 5.57765075 20.4881799 5.49263344 20.6544906 5.21641491 20.8748416 5.00892091 21.170737 4.894936 21.5068329L4.58835842 21.3249306C4.35703487 21.1966204 4.13415356 21.0534 3.92110136 20.8961609 3.6995411 20.7324487 3.47798084 20.5557436 3.25899686 20.3764399 2.91635134 20.0983893 2.56340069 19.8021482 2.19756864 19.5422879 2.23243597 19.2705676 2.23243597 18.9954475 2.19756864 18.7237274 2.18468722 18.601593 2.16922952 18.4820571 2.16922952 18.3703171L2.06102569 14.5113893C2.29352305 14.499819 2.52456106 14.4676455 2.75146929 14.4152409 2.87770711 14.3866562 3.01940262 14.3476773 3.13533532 14.3476773L3.39296352 14.329487C3.71905896 14.3324936 4.04211566 14.2660828 4.34103534 14.1345916 4.97737702 13.8071674 4.90524112 13.1653121 4.85629176 12.7391409L4.84083407 12.6014149C4.6501892 10.6914405 4.54971419 8.729494 4.45181547 6.83251264zM41.3953654 30.561176L41.3953654 30.558575C41.7936128 30.558575 42.1164561 30.8811375 42.1164561 31.2790385 42.1164561 31.6769395 41.7936128 31.999502 41.3953654 31.999502 37.6076867 31.999502 33.9944236 30.3739075 31.2167926 27.421828 31.0056095 27.2067481 30.9422185 26.8870041 31.0553934 26.6077303 31.17147 26.3481671 31.4294649 26.1810749 31.7140069 26.1811742 31.9320521 26.1845434 32.1387563 26.2788468 32.284111 26.4412694 34.7779915 29.0994415 38.0111852 30.561176 41.3953654 30.561176zM44.3109667 1.39931171L44.3109667 1.40451363C43.9424282 1.35981091 43.671624 1.0373823 43.6915325.666994459 43.711441.296606618 44.0152494.00500999291 44.38646 0L44.4749694 0C47.6748812.352215551 50.6243073 1.89669366 52.7349722 4.32538176 52.9648196 4.59032349 52.9648196 4.9837777 52.7349722 5.24871941 52.597983 5.40078805 52.4034704 5.48852559 52.1987099 5.4906337 51.9910712 5.4923788 51.7931196 5.4029977 51.657241 5.24611846 49.7797682 3.08647784 47.156758 1.71296343 44.3109667 1.39931171zM44.3760471 18.0714086C44.1417577 18.0115867 43.9048651 17.9517649 43.6757822 17.9023467L43.6757822 14.7031769C44.2979507 14.8592339 44.6441784 15.1245309 44.7899585 15.5536879 44.905187 15.9372557 44.9836369 16.3309054 45.0242479 16.7293177 45.071273 17.211202 45.1707841 17.686521 45.3210144 18.1468361 45.3392369 18.1962542 45.3600626 18.2456722 45.3808884 18.2950904 45.0476768 18.2378695 44.7092587 18.154639 44.3760471 18.0714086zM45.6334003 15.2571795C45.3027919 14.3000294 44.446334 13.9567039 43.6887982 13.790243L43.6887982 10.515608C47.7039454 10.5081849 51.3938319 12.7203912 53.2764411 16.2637475L52.6568757 16.7527264C52.5917954 16.8047454 52.5241118 16.8671682 52.453825 16.929591 52.361569 17.018057 52.2623254 17.0989485 52.1570584 17.1714795L52.1258199 17.1714795C51.9982623 17.1194605 50.485794 16.2273342 50.2593143 16.07908 50.1598001 16.0135692 50.0328651 16.0060789 49.9263247 16.0594304 49.8197842 16.1127819 49.7498243 16.2188699 49.742798 16.3377321 49.7357717 16.4565944 49.7927466 16.5701727 49.8922609 16.6356835L49.9937862 16.6851016 49.4366981 16.8827739 49.277902 16.9347929C48.9593051 16.9973875 48.6939207 17.2165549 48.5724306 17.517406 48.541192 17.5850308 48.5021438 17.6916697 48.4630956 17.8087125 48.4021943 17.9953449 48.3291485 18.1778004 48.2444255 18.3549122 47.9580718 18.370518 47.031327 18.3549122 46.3961424 18.3549122 46.3100857 18.1859414 46.2336041 18.0122706 46.1670595 17.834722 46.0378476 17.4338721 45.9506069 17.0207103 45.9067379 16.6018711 45.860093 16.1457523 45.7685374 15.6953416 45.6334003 15.2571795zM46.4586196 31.570345C46.4489995 31.5770331 46.4402543 31.584897 46.4325875 31.5937536 45.9121865 31.7327321 45.3823257 31.8335703 44.8472292 31.895464 44.4567469 31.9370791 44.2641089 32.0255115 43.9725488 31.8304401 43.7928291 31.717496 43.681473 31.5223043 43.6757822 31.3102499 43.6757822 31.1541929 43.6757822 30.6027913 43.6757822 30.6027913L43.6757822 24.2382638 46.7475765 31.0007368C46.6408447 31.1880053 46.5471289 31.3804756 46.4586196 31.570345zM50.1525825 25.770224C50.7226866 26.6337398 51.6416218 27.1877424 52.4199831 27.577885 51.7614338 28.4618551 50.9713163 29.2398824 50.0770893 29.8849288L49.4314918 28.9719949C49.3767436 28.8953175 49.2922591 28.8451631 49.1986786 28.8337849 49.105098 28.8224066 49.0110401 28.8508526 48.939484 28.912173L47.2760293 30.3557009 47.223965 30.4077199 43.6861951 22.6230731 43.6861951 18.5889979C43.8632137 18.6306131 44.0428356 18.6722283 44.2224575 18.7190454 44.7158381 18.855528 45.2188169 18.9546451 45.727116 19.0155539 46.0986914 19.7093998 46.613297 20.3166381 47.236981 20.7972054 47.6118441 21.0677043 48.4761116 21.5410774 49.1737734 21.3928233 49.4740964 21.3316164 49.7321755 21.1413178 49.8792449 20.872633 50.037409 20.547672 50.126067 20.1933483 50.1395664 19.8322525 50.2254725 18.7606606 50.5482713 18.6748293 50.7591316 18.8152806 51.1730429 19.0909814 50.9335471 19.7932383 50.6133516 20.5084998L50.5482713 20.656754C50.1490131 21.4521194 49.8574961 22.2970458 49.6814004 23.1692729 49.5013371 24.0645739 49.6698518 24.9947843 50.1525825 25.770224zM53.8179099 18.8230835C53.9662932 18.898511 54.1172798 18.953131 54.265663 19.0207557 54.838567 21.705323 54.3517457 24.5072351 52.9067845 26.8418159L52.8911651 26.8418159C52.1987099 26.4880865 51.3734905 26.0017086 50.8971021 25.2812451 50.5376038 24.6947516 50.4173823 23.9926728 50.5612872 23.320128 50.7225535 22.528052 50.9886858 21.7609634 51.3526648 21.0390939L51.4177453 20.8908396C51.6962892 20.2718133 52.2663935 18.8100787 51.1287882 18.1442353 49.168567 16.9972157 49.6657811 20.128761 49.0904705 20.4590817 49.0514223 20.4798894 49.0436126 20.5215046 48.975929 20.5371103 48.6869721 20.5943312 48.1012486 20.3576446 47.755021 20.0975495 47.3735645 19.8062427 47.0420954 19.4548572 46.7736086 19.0571691L47.3957773 19.0571691C47.7792366 19.0799101 48.164037 19.0545704 48.541192 18.9817415 48.7832911 18.8438911 48.9160551 18.5057674 49.0774544 18.048 49.1112963 17.9517649 49.1399316 17.8659335 49.1659638 17.8113135 49.2310441 17.6630592 49.241457 17.6604583 49.4653335 17.5876316L49.6449554 17.5304108 50.5014134 17.2260995 50.6159548 17.1792824C50.6497966 17.1636766 50.7122738 17.1324652 50.6966545 17.1324652 50.7591316 17.14547 51.8212436 17.7670972 51.8212436 17.7670972L52.6022082 18.1962542C52.6526537 18.2259329 52.7102775 18.2412259 52.768814 18.2404704 52.8888373 18.2411834 52.9996656 18.1763402 53.057771 18.0714086 53.1018346 17.9945441 53.1134231 17.9033037 53.0899719 17.8178791 53.0665208 17.7324544 53.0099636 17.6598892 52.9328166 17.6162421L52.7766237 17.5304108C52.8156719 17.4965984 52.828688 17.4835936 52.888562 17.4315746 52.9484359 17.3795556 53.0057066 17.3249356 53.0629774 17.2807194L53.565398 16.877572C53.7583636 17.3096511 53.9235689 17.7535798 54.060009 18.206658 53.8896396 18.1398624 53.6973323 18.2237054 53.6304784 18.3939265 53.5636246 18.5641478 53.6475405 18.7562877 53.8179099 18.8230835zM49.5173979 30.2672685C48.8310621 30.7025776 48.0974597 31.0585889 47.3306968 31.3284566 47.4295561 31.1547064 47.5551811 30.9975923 47.7029566 30.8628864L49.0878673 29.658646 49.5173979 30.2672685zM36.7980868 15.8788068L34.2729677 13.6705993C33.9693749 11.2533294 33.1823543 8.92174102 31.9587091 6.81449201L33.9319465 8.48950455C34.0707599 8.60494586 34.1631987 8.76657331 34.192268 8.944671 34.3021692 9.3542325 34.380495 9.77160669 34.4265574 10.1931275 34.471339 10.5619621 34.5347649 10.9282972 34.6165921 11.2907289 34.789778 12.2159186 35.2211336 13.0733713 35.8609292 13.7642335 36.6789757 14.618398 37.8146295 15.0958051 38.9978039 15.0829158 39.204069 15.0827163 39.4101216 15.0696863 39.614766 15.0439015 40.4009371 14.9450653 41.184505 14.799412 41.9446439 14.640754L41.9446439 17.5018002 37.8497859 16.3755884C37.7768959 16.3521799 37.68318 16.3313723 37.5894642 16.3105646 37.4378209 16.2852544 37.2894165 16.2433885 37.1469176 16.185719 37.0661867 16.1340795 36.9926573 16.0719836 36.9282475 16.0010515L36.7980868 15.8788068zM37.68318 17.0180234L41.9550567 18.1936533 41.9550567 21.2393671C39.0598852 21.227399 36.2937939 20.0408168 34.2911902 17.9517649 34.3693292 17.2791823 34.4093091 16.6027204 34.4109381 15.9256239 34.4109381 15.493866 34.3927156 15.06731 34.3640803 14.643355L36.3581434 16.3833912C36.3919851 16.4120018 36.425827 16.4458141 36.462272 16.4796265 36.5740277 16.5998035 36.7040495 16.7016237 36.8475479 16.7813368 37.038904 16.8687281 37.2411701 16.9299675 37.4488906 16.9634034 37.5321935 16.98161 37.61029 16.9972157 37.68318 17.0180234zM41.3016496.0130047557C42.007121-.0260095115 41.9550567.76988154 41.9550567.76988154L41.9550567 13.7512288C41.1584728 13.9176896 40.3332535 14.0763476 39.5158438 14.1777848 38.4104941 14.3448535 37.2924676 13.9679809 36.5143362 13.1660148 35.9843222 12.5897653 35.6302549 11.8741244 35.4938758 11.1034605 35.4183825 10.7913463 35.3741279 10.4662274 35.32727 10.1255028L35.3767311 10.1567142C35.7003091 10.4085001 36.0881683 10.56441 36.4961137 10.6066788 36.7651155 10.6067414 37.0289644 10.532964 37.2588559 10.3934008 37.4540971 10.2841608 37.5452096 10.2607523 37.6311157 10.2841608 37.9547481 10.3938994 38.2575074 10.5574583 38.5266219 10.7679378 38.672402 10.8771777 38.6906245 10.8901825 38.4485254 11.3375461L38.3860483 11.4545889C38.2731438 11.672338 38.3567419 11.9403157 38.5734797 12.0554086 38.6379008 12.0887058 38.709212 12.1065181 38.781737 12.1074276 38.9474078 12.1079763 39.0993399 12.0154889 39.1748225 11.8681401L39.2346965 11.7589002C39.445557 11.3557527 39.8412457 10.6378902 39.0602811 10.0552771 38.7087685 9.77661394 38.3115263 9.56100486 37.8862309 9.41804411 37.5404224 9.3386316 37.177208 9.39942644 36.8761832 9.58710594 36.7698875 9.65956216 36.6454876 9.70099274 36.5169395 9.70674969 35.9598514 9.65212971 35.2361575 9.0617138 35.158061 9.0617138 35.1268224 8.92646434 35.0955839 8.8328301 35.0539324 8.69758064 34.9759662 8.35330346 34.786568 8.04431351 34.5150668 7.81845915L32.5053844 6.10963425C32.4513952 6.06635736 32.3881485 6.03609656 32.3205561 6.02120191 33.0094696 4.60304924 34.0021934 3.35367833 35.2283479 2.36166364L35.2465704 2.40067791C35.3008503 2.51990201 35.4200542 2.59624838 35.5511465 2.59574925 35.5986925 2.59656699 35.6458237 2.58679353 35.689117 2.56713879 35.8567033 2.49042093 35.9310645 2.29307061 35.8557227 2.12497709L35.7750231 1.94811241C37.3994631.798618086 39.3143977.12811781 41.3016496.0130047557zM48.07001 14.7369893C48.0108602 14.8028115 47.9803611 14.8894475 47.9852452 14.9777729 47.9901294 15.0660982 48.029995 15.1488501 48.0960421 15.2077614 48.3173155 15.4080346 48.5437953 15.6083079 48.7728782 15.8033791 48.833807 15.853387 48.9100957 15.8809373 48.9889451 15.8814077 49.1290946 15.8804489 49.25391 15.7926279 49.3020389 15.6611125 49.3501679 15.5295973 49.3114879 15.382048 49.205012 15.2909917 48.9811355 15.1037234 48.7598621 14.906051 48.5437953 14.7109797 48.4057166 14.5876084 48.1937292 14.5992459 48.07001 14.7369893zM47.0287237 13.1946251L47.0287237 13.1998271C46.9259271 13.0468435 46.7184683 13.0060865 46.5653515 13.1087937 46.4122346 13.2115011 46.3714423 13.4187795 46.4742389 13.5717631 46.5390822 13.6641725 46.6113429 13.7511577 46.6903058 13.8318582L46.9506274 14.0919534 47.1120267 14.2636161C47.1746204 14.3305866 47.2624175 14.3683159 47.3541258 14.3676627 47.4400282 14.367311 47.5226867 14.3348331 47.5858119 14.2766209 47.7184801 14.1487139 47.7242674 13.9382395 47.598828 13.8032477L47.4374286 13.6341859C47.3463161 13.5535564 47.2630133 13.4625231 47.1771071 13.3740907 47.1233354 13.3179612 47.0737421 13.2579795 47.0287237 13.1946251zM45.4902234 11.1710852L45.4954299 11.1762871C45.3527317 11.2892477 45.3282928 11.4962179 45.4407624 11.6392564 45.606343 11.8545769 45.746132 12.08852 45.8572769 12.3363113 45.9134983 12.4503603 46.029406 12.5228655 46.1566466 12.5235852 46.2072201 12.5238747 46.2571554 12.5122926 46.3024266 12.4897674 46.3827363 12.4520994 46.4445235 12.3837624 46.4738971 12.3001204 46.5032707 12.2164784 46.4977657 12.1245506 46.4586196 12.0450048 46.3249092 11.7507504 46.1571604 11.473158 45.9588022 11.2179023 45.9032502 11.1490557 45.822388 11.1053398 45.7343167 11.0965403 45.6462454 11.0877409 45.5583203 11.1145927 45.4902234 11.1710852zM36.4909074 4.65570256C36.5312864 4.65891284 36.5719095 4.65450112 36.6106553 4.6426978 36.6928506 4.60831568 36.7578384 4.54247266 36.7911009 4.45987736 36.8243634 4.37728206 36.8231293 4.28481671 36.7876739 4.20313706 36.7330064 4.0730895 36.6757356 3.94044099 36.6158618 3.81299439L36.425827 3.35782794C36.3489091 3.19047969 36.1507742 3.11711711 35.9832804 3.19396802 35.8157864 3.27081892 35.7423599 3.46878146 35.8192777 3.6361297L36.0171221 4.07569045C36.0743929 4.19273325 36.1290604 4.32538176 36.1837279 4.45282836 36.2360279 4.57597207 36.3570191 4.65587976 36.4909074 4.65570256zM37.7170219 6.59861306C37.7901919 6.54817174 37.840155 6.47060924 37.8557991 6.3831761 37.8714432 6.29574297 37.8514711 6.20568896 37.8003248 6.13304281 37.6753704 5.95357718 37.5452096 5.75850584 37.4358746 5.56343451 37.404636 5.51141549 37.3733974 5.45679551 37.344762 5.39957459 37.2889596 5.29410694 37.1810809 5.22639512 37.0617625 5.22194552 36.9424441 5.21749594 36.8298135 5.27698455 36.7662975 5.3780026 36.7027815 5.47902065 36.6980298 5.60622107 36.7538321 5.71168873 36.7850708 5.77411155 36.8189125 5.83393342 36.8527542 5.8937553 36.9777086 6.1122352 37.1182823 6.32031129 37.2510463 6.51278168 37.3134894 6.60368031 37.4166423 6.65812879 37.5269871 6.65843494 37.5948059 6.65737759 37.660845 6.63658881 37.7170219 6.59861306zM39.5054309 8.00832859C39.5328241 7.92244659 39.5241925 7.82913711 39.4815088 7.74972634 39.4388251 7.67031556 39.3657379 7.61159106 39.2789511 7.5869745L38.9483428 7.48293645C38.8211016 7.44770002 38.6999675 7.39332475 38.5890991 7.32167749 38.5631336 7.29998027 38.5395701 7.27556534 38.5188123 7.24885085 38.403795 7.1052043 38.1940051 7.08191459 38.0502335 7.19683184 37.9064619 7.31174909 37.8831519 7.52135647 37.9981691 7.66500304 38.052571 7.73577292 38.1155263 7.79954701 38.1856006 7.85487247 38.3616999 7.97268179 38.5560954 8.06056706 38.7609112 8.11496759L38.8702464 8.14877995 38.950946 8.17478946 39.0889165 8.21900562C39.1630296 8.24518579 39.2438863 8.24518579 39.3179994 8.21900562 39.408403 8.17967806 39.4769396 8.10264139 39.5054309 8.00832859zM41.4682555 8.80942154C41.5359192 8.63777339 41.4521933 8.44374428 41.2808239 8.3750627L40.4399852 8.04214095C40.3288456 7.99846711 40.2028283 8.01735158 40.1094029 8.09168075 40.0159774 8.16600993 39.9693375 8.28449143 39.9870517 8.40249443 40.004766 8.52049743 40.0841434 8.62009446 40.195283 8.66376828L41.0335185 8.99669003C41.073415 9.011962 41.1157489 9.0198927 41.1584728 9.02009859 41.294996 9.01931815 41.4174575 8.93603449 41.4682555 8.80942154zM82.8938201 14.1203621C82.2256198 14.8511536 81.2791421 15.2673129 80.2869876 15.2665681 77.9529333 15.2665681 76.2596501 13.4305878 76.2596501 10.9073983 76.2596501 8.21240635 78.351807 6.54822958 80.2869876 6.54822958 81.2765663 6.53410848 82.22508 6.94183285 82.8938201 7.66879236L82.8938201 3.26346771C82.8938201 3.18699411 82.9560357 3.125 83.0327826 3.125L84.4043934 3.125C84.4815674 3.125 84.544526 3.18658114 84.5459293 3.26346771L84.5459293 14.8896271C84.544526 14.9665138 84.4815674 15.0281076 84.4043934 15.0280949L83.0327826 15.0280949C82.9560357 15.0280949 82.8938201 14.9661008 82.8938201 14.8896271L82.8938201 14.1203621zM77.9117593 10.9073983C77.9117593 12.3177176 78.5576772 13.835734 80.4027897 13.8434266 81.9622571 13.8434266 82.8938201 12.3484882 82.8938201 10.9073983 82.8938201 9.06629059 81.9622571 7.96880575 80.4027897 7.96880575 78.6837728 7.96880575 77.9117593 9.49195059 77.9117593 10.9073983zM86.2340656 15.0255306C86.1972104 15.0255306 86.1618648 15.0109421 86.1358043 14.9849744 86.1097438 14.9590067 86.0951031 14.9237869 86.0951031 14.887063L86.0951031 6.90978416C86.0951031 6.83331055 86.1573188 6.77131645 86.2340656 6.77131645L87.4924477 6.77131645C87.5644381 6.77100834 87.624745 6.82553632 87.6314101 6.89696308L87.7111849 7.68674189C88.3737866 6.93510623 89.3375327 6.51602551 90.3411777 6.54310114 92.4127475 6.54310114 93.4652594 7.89444345 93.4652594 10.5561006L93.4652594 14.887063C93.4638563 14.9639495 93.4008976 15.0255306 93.3237236 15.0255306L91.9521127 15.0255306C91.875366 15.0255306 91.8131504 14.9635366 91.8131504 14.887063L91.8131504 10.9073983C91.8131504 10.2150598 91.8131504 9.4483589 91.5918398 8.88423119 91.3499422 8.25856226 90.8893074 7.96880575 90.1172939 7.96880575 89.1625704 7.96880575 87.7472121 8.77140564 87.7472121 9.88171156L87.7472121 14.887063C87.745809 14.9639495 87.6828504 15.0255306 87.6056764 15.0255306L86.2340656 15.0255306zM108.07433 20.2000645C108.144157 20.2051903 108.199294 20.2612303 108.202999 20.3308955 108.206698 20.352105 108.206698 20.3737914 108.202999 20.3950009L104.620856 28.9928203C103.918323 30.6210979 102.79633 31.6442205 101.460747 31.875L101.458173 31.875C101.416387 31.8743298 101.376952 31.8556176 101.350091 31.8237156L100.603812 30.9134186C100.573341 30.8761201 100.564046 30.8259205 100.579153 30.780243 100.594259 30.7345654 100.631685 30.6997074 100.67844 30.6877676 101.972849 30.3672405 102.724276 29.6569524 103.18491 28.3158669L99.8575318 20.3924366C99.8355719 20.351591 99.8355719 20.3025074 99.8575318 20.2616616 99.8847904 20.223405 99.928823 20.2005133 99.9759073 20.2000645L101.409279 20.2000645C101.467826 20.198859 101.520647 20.2349793 101.540521 20.289868L104.018685 26.6491259 106.561183 20.2873037C106.581919 20.2334266 106.634539 20.1984716 106.692425 20.2000645L108.07433 20.2000645zM64.7360609 3.125C67.9013165 3.125 70.4772685 5.84563415 70.4772685 9.189373 70.4772685 12.5331119 67.8987431 15.2665671 64.7360609 15.2665671 61.5733786 15.2665671 59 12.5331119 59 9.189373 59 5.84563415 61.5733786 3.125 64.7360609 3.125zM68.8251595 9.189373C68.8251595 6.6277203 66.9929139 4.54301195 64.7360609 4.54301195 62.4792079 4.54301195 60.6443889 6.6277203 60.6443889 9.189373 60.6443889 11.7510257 62.4817812 13.835734 64.7360609 13.835734 66.9903405 13.835734 68.8251595 11.7535899 68.8251595 9.189373zM77.0573975 20.2000966C77.0946965 20.199432 77.1307069 20.2137161 77.1573266 20.2397588 77.1839464 20.2658015 77.1989334 20.3014156 77.1989334 20.3385881L77.1989334 28.3158669C77.1989334 28.3530395 77.1839464 28.3886535 77.1573266 28.4146962 77.1307069 28.440739 77.0946965 28.455023 77.0573975 28.4543346L75.8015887 28.4543346C75.7291197 28.4559021 75.6680799 28.4007114 75.6626264 28.328688L75.5802783 27.5389093C74.9183285 28.2914341 73.9541411 28.7107067 72.9502852 28.68255 70.8787155 28.68255 69.8262038 27.3337719 69.8262038 24.6695505L69.8262038 20.3385881C69.8276069 20.2617015 69.8905655 20.2000966 69.9677395 20.2000966L71.3419238 20.2000966C71.3787789 20.2000966 71.4141245 20.2147089 71.440185 20.2406766 71.4662455 20.2666444 71.4808861 20.3018643 71.4808861 20.3385881L71.4808861 24.3259454C71.4808861 25.0490546 71.4808861 25.7849849 71.6996234 26.3516768 71.9440943 26.9747815 72.404729 27.264538 73.1767426 27.264538 74.1314661 27.264538 75.5468243 26.4619381 75.5468243 25.3541964L75.5468243 20.3385881C75.5468243 20.3018643 75.561465 20.2666444 75.5875255 20.2406766 75.613586 20.2147089 75.6489316 20.2000966 75.6857868 20.2000966L77.0573975 20.2000966zM92.2248909 20.2616616C92.2514412 20.3011129 92.2562776 20.3512315 92.2377578 20.3950009L88.8306045 28.3697155C88.8087885 28.4212157 88.758035 28.4545939 88.7019356 28.4543361L87.3843658 28.4543361C87.3284699 28.4539205 87.2780544 28.4207646 87.2556969 28.3697155L83.8974377 20.3924366C83.8792796 20.349574 83.8839378 20.3004897 83.9098374 20.2617785 83.9357371 20.2230674 83.9794159 20.1999042 84.0261067 20.2000884L85.4569053 20.2000884C85.5154521 20.198859 85.5682728 20.2349792 85.5881475 20.289868L88.0405774 26.5696352 90.580502 20.2873037C90.6009166 20.2343239 90.65222 20.1995617 90.7091709 20.2000884L92.1065155 20.2000884C92.1538154 20.1996347 92.1982321 20.2227261 92.2248909 20.2616616zM96.1570134 19.9719051C98.6068698 19.9719051 99.955344 21.5822334 99.955344 24.5156975 99.956011 24.5528636 99.9416759 24.5887458 99.9155401 24.6152708 99.8894044 24.6417957 99.8536631 24.6567357 99.8163577 24.6567294L93.7895051 24.6567294C93.8898669 25.9465305 94.5563719 27.2722306 96.1570134 27.2722306 97.3330474 27.2722306 98.3829859 26.9158045 99.0289039 26.295264 99.0638679 26.2621707 99.1131264 26.248697 99.1601462 26.259365 99.205786 26.2694141 99.2428561 26.3024641 99.2579346 26.3465484L99.6593816 27.4235195C99.6798368 27.4786176 99.6645471 27.5405744 99.620781 27.5799366 98.5451087 28.4979264 97.1426174 28.6902426 96.1570134 28.6902426 93.748331 28.6902426 92.1271025 26.9388825 92.1271025 24.3310739 92.1271025 21.802756 93.822959 19.9719051 96.1570134 19.9719051zM93.8049454 23.4720611L98.2800508 23.4720611C98.0381531 22.0617419 97.3587813 21.4027381 96.1570134 21.4027381 94.9552456 21.4027381 94.046843 22.2079022 93.8049454 23.4720611zM71.7099169 15.0255544C71.63317 15.0255544 71.5709544 14.9635366 71.5709544 14.887063L71.5709544 6.92260525C71.5709544 6.84613164 71.63317 6.78413754 71.7099169 6.78413754L72.968299 6.78413754C73.0402895 6.78382943 73.1005962 6.83835741 73.1072614 6.90978416L73.179316 7.63289333C73.6334721 6.95661783 74.3956596 6.54996278 75.2122851 6.54822958 75.5077915 6.55249133 75.801649 6.59296818 76.0872337 6.66874778 76.1507917 6.68318098 76.1957381 6.73969709 76.1953187 6.80465126L76.1953187 8.05086069C76.1955321 8.10043786 76.1691316 8.14634721 76.1260968 8.17122914 76.0830619 8.19611106 76.0299606 8.19616818 75.986872 8.17137889 75.7385543 8.00575471 75.4401271 7.93141353 75.1428039 7.9611131 73.3594525 7.9611131 73.2230635 9.9483812 73.2230635 10.5561006L73.2230635 14.887063C73.2230699 14.9242355 73.2080765 14.9598496 73.1814567 14.9858922 73.154837 15.011935 73.1188266 15.0262191 73.0815276 15.0255544L71.7099169 15.0255544zM124.201693 6.54822957C126.65155 6.54822957 128 8.15599358 128 11.0817651 128 11.1582387 127.937785 11.2202328 127.861037 11.2202328L121.834185 11.2202328C121.934547 12.5125981 122.603625 13.835734 124.201693 13.835734 125.393168 13.835734 126.422519 13.4716153 127.07873 12.8562031 127.111852 12.8235655 127.1594 12.8100288 127.204826 12.8203041 127.251741 12.8301201 127.290481 12.8629317 127.307761 12.9074875L127.709209 13.9844586C127.73893 14.0438581 127.720282 14.1159964 127.665461 14.1536969 126.589789 15.0742507 125.18987 15.2665671 124.201693 15.2665671 121.793011 15.2665671 120.174356 13.5100785 120.174356 10.9073983 120.174356 8.37908045 121.867639 6.54822957 124.201693 6.54822957zM121.849625 10.0355646L126.32473 10.0355646C126.082832 8.62524527 125.403461 7.96624152 124.201693 7.96624152 122.999925 7.96624152 122.091523 8.77396985 121.849625 10.0355646zM64.9779585 21.4796646C67.4715623 22.1361041 68.7350911 23.4002631 68.7325217 25.2388066 68.7222242 27.2671023 67.1601835 28.68255 64.934211 28.68255 63.2718085 28.6646004 61.7715288 28.1107296 60.9223138 27.2004326 60.8809763 27.1496081 60.8809763 27.0768904 60.9223138 27.0260659L61.6402864 26.000379C61.6636916 25.9672745 61.7002484 25.9457921 61.7406482 25.9414021 61.7804298 25.9346528 61.8209689 25.9481178 61.8487301 25.9773011 62.6885319 26.7628411 63.7856719 27.2183553 64.9367844 27.2594095 65.481992 27.27826 66.0105489 27.0705371 66.3960569 26.6859155 66.7815648 26.3012937 66.989361 25.7743563 66.9697535 25.231114 66.9826204 23.8490011 65.8863611 23.4412906 64.5559244 23.079736 62.4200201 22.4976587 61.2517062 21.2770915 61.2517062 19.651378 61.2517062 17.5307706 63.1611531 16.5486755 64.934211 16.5486755 65.952701 16.5525514 66.949925 16.8393759 67.8138216 17.3769176 67.8457842 17.3984041 67.8679715 17.4315665 67.8755828 17.4692294 67.8833647 17.5059618 67.8749289 17.544255 67.8524224 17.5743623L67.14989 18.5692785C67.1081685 18.6268069 67.0305254 18.6453313 66.9671801 18.6128701 66.3487763 18.2445571 65.6526775 18.025057 64.934211 17.9718159 63.9331667 17.9718159 62.9038154 18.492352 62.9038154 19.6565064 62.8780815 20.7796334 64.0747026 21.223243 64.9779585 21.4796646zM83.26696 20.0872949C83.3303818 20.1036114 83.3747824 20.1604949 83.375042 20.2257626L83.375042 21.4771004C83.3745875 21.5279461 83.3471813 21.574761 83.3029874 21.6001829 83.259605 21.6234331 83.2074073 21.6234331 83.1640249 21.6001829 82.9145637 21.4349635 82.6154825 21.3606859 82.3173834 21.389917 80.5391788 21.389917 80.4002164 23.3771851 80.4002164 23.9849046L80.4002164 28.3158669C80.4002164 28.3525909 80.3855756 28.3878106 80.3595151 28.4137784 80.3334546 28.4397461 80.298109 28.4543346 80.2612539 28.4543346L78.8870697 28.4543346C78.8103229 28.4543346 78.7481073 28.3923405 78.7481073 28.3158669L78.7481073 20.3385881C78.7481073 20.3018643 78.7627479 20.2666444 78.7888084 20.2406766 78.8148689 20.2147089 78.8502146 20.2001204 78.8870697 20.2001204L80.1454519 20.2001204C80.2174424 20.1998123 80.2777491 20.2543402 80.2844142 20.325767L80.3564689 21.0488762C80.810625 20.3726008 81.5728125 19.9659456 82.389438 19.9642125 82.6857324 19.9713537 82.9802006 20.0126562 83.26696 20.0872949zM119.145004 13.0305699C119.189621 13.0472531 119.221967 13.0863208 119.229926 13.1331386L119.585052 14.2101098C119.602705 14.2647116 119.585409 14.3245277 119.541305 14.3613985 118.813039 14.9614252 117.837728 15.2665671 116.64368 15.2665671 114.204117 15.2665671 112.497967 13.4203309 112.497967 10.892013 112.497967 8.36369515 114.247865 6.53284428 116.659121 6.53284428 117.258718 6.53284428 118.743557 6.64823404 119.515571 7.71494828 119.550361 7.76321752 119.550361 7.82822468 119.515571 7.87649394L118.936561 8.71242865C118.913209 8.74974561 118.872599 8.77286907 118.828479 8.77396985 118.784861 8.76964415 118.744021 8.75065309 118.712677 8.7201213 118.138813 8.007269 117.469735 7.95085622 116.653974 7.95085622 114.816581 7.95085622 114.165517 9.53297806 114.165517 10.8894488 114.165517 12.7536345 115.071346 13.8254771 116.653974 13.8254771 117.508871 13.862118 118.348133 13.5888259 119.016335 13.0562121 119.051551 13.0253805 119.100597 13.0156064 119.145004 13.0305699zM98.3572521 15.2665953C96.0231977 15.2665953 94.3299146 13.4228951 94.3299146 10.9073983 94.3299146 8.21240635 96.419498 6.54822958 98.3572521 6.54822958 99.3632557 6.53401445 100.325824 6.9560365 100.994965 7.7046914L101.077313 6.89696308C101.083978 6.82553633 101.144285 6.77100834 101.216276 6.77131645L102.474658 6.77131645C102.551405 6.77131645 102.61362 6.83331055 102.61362 6.90978416L102.61362 14.9024483C102.61362 14.9789219 102.551405 15.040916 102.474658 15.040916L101.100474 15.040916C101.023727 15.040916 100.961511 14.9789219 100.961511 14.9024483L100.961511 14.1331833C100.292011 14.8591016 99.3466682 15.2705186 98.3572521 15.2665953zM95.9820236 10.9073983C95.9820236 12.3177176 96.6356617 13.835734 98.4704807 13.8434266 100.029948 13.8434266 100.961511 12.3484882 100.961511 10.9073983 100.961511 9.06629059 100.029948 7.96880575 98.4704807 7.96880575 96.7540372 7.96880575 95.9820236 9.49195059 95.9820236 10.9073983zM108.408869 6.54822958C110.483012 6.54822958 111.53295 7.89444345 111.522657 10.5561006L111.522657 14.887063C111.522657 14.9635366 111.460441 15.0255306 111.383695 15.0255306L110.00951 15.0255306C109.932763 15.0255306 109.870548 14.9635366 109.870548 14.887063L109.870548 10.9073983C109.870548 10.2150598 109.870548 9.4483589 109.651811 8.88423119 109.40734 8.25856226 108.946705 7.96880575 108.174691 7.96880575 107.222541 7.96880575 105.80461 8.77140564 105.80461 9.88171156L105.80461 14.887063C105.80461 14.9237869 105.789969 14.9590068 105.763908 14.9849744 105.737848 15.0109421 105.702502 15.0255306 105.665647 15.0255306L104.291463 15.0255306C104.214716 15.0255306 104.152501 14.9635366 104.152501 14.887063L104.152501 6.9149126C104.152501 6.83843899 104.214716 6.77644489 104.291463 6.77644489L105.557565 6.77644489C105.629556 6.77613678 105.689863 6.83066476 105.696528 6.90209151L105.776302 7.69187033C106.439919 6.94012579 107.404473 6.5211036 108.408869 6.54822958z"/>
</svg>
